<svg width="513" height="512" viewBox="0 0 513 512" fill="none" xmlns="http://www.w3.org/2000/svg">
<path fill-rule="evenodd" clip-rule="evenodd" d="M234.947 103.156C252.302 97.4866 268.321 98.1535 283.339 105.156C298.691 112.159 307.702 123.163 326.391 157.177C332.208 167.694 348.371 196.589 364.957 226.13L366.156 228.267C369.157 233.609 372.163 238.959 375.116 244.211C417.167 317.906 417.835 321.908 402.816 369.26C390.802 407.608 375.45 419.946 354.425 408.608C342.744 402.606 341.743 392.602 350.42 373.595C354.425 364.258 359.764 348.585 361.767 338.581L365.104 320.574L316.379 235.541C274.662 162.512 266.652 150.507 259.31 149.507C247.629 147.84 243.624 152.175 225.603 185.188C219.512 196.629 206.485 219.443 193.144 242.344L192.047 244.226C187.473 252.068 182.885 259.883 178.546 267.22L147.175 320.574L151.179 338.914C153.516 348.918 158.855 364.591 162.86 373.595C167.199 382.598 169.869 392.268 168.868 395.27C163.194 411.276 137.163 417.612 126.149 405.607C117.472 395.937 101.119 344.25 101.119 325.909C101.119 309.236 105.124 300.233 130.488 257.216C136.141 247.202 149.116 224.534 162.099 201.392L163.11 199.589L164.121 197.784C167.32 192.07 170.496 186.365 173.54 180.853C204.911 124.164 216.926 108.824 234.947 103.156ZM258.117 192.378C260.785 192.712 332.179 314.053 334.181 322.386C337.517 335.054 325.841 357.722 311.495 367.389C272.129 393.391 227.757 391.057 197.065 361.389C171.376 336.721 172.043 333.387 213.745 262.049C233.095 228.38 250.777 198.712 252.778 196.379C254.447 194.379 256.782 192.378 258.117 192.378ZM257.739 285.405C255.726 285.405 231.571 322.811 231.571 326.151C231.571 327.153 237.274 330.493 244.655 333.499C256.733 339.176 258.075 339.176 268.811 333.833C275.185 330.493 280.888 327.487 281.224 327.153C281.895 326.485 277.533 316.799 271.159 305.778C265.12 294.757 259.081 285.405 257.739 285.405Z" fill="black"></path>
</svg>
